<svg width="518" height="207" viewBox="0 0 518 207" fill="none" xmlns="http://www.w3.org/2000/svg">
<path fill-rule="evenodd" clip-rule="evenodd" d="M382.131 64.9713C385.474 64.9947 388.502 64.7592 388.859 64.4405C390.267 63.1877 389.073 62.1592 386.877 62.7329C385.599 63.0728 383.085 63.3082 381.286 63.2604C379.489 63.2121 377.577 63.5678 377.036 64.0471C376.43 64.5856 378.395 64.9399 382.131 64.9713Z" fill="#FFCD00"/>
<path fill-rule="evenodd" clip-rule="evenodd" d="M246.745 85.6086C246.828 86.0816 248.436 86.1951 250.32 85.8629C252.204 85.5307 253.682 84.8731 253.598 84.4001C253.516 83.9298 251.902 83.8172 250.018 84.1494C248.134 84.4816 246.662 85.1383 246.745 85.6086Z" fill="#FFCD00"/>
<path fill-rule="evenodd" clip-rule="evenodd" d="M333.886 80.524C333.228 81.4634 334.411 82.518 335.84 82.266C336.522 82.1457 336.973 81.4693 336.848 80.7611C336.621 79.4689 334.732 79.3197 333.886 80.524Z" fill="#FFCD00"/>
<path fill-rule="evenodd" clip-rule="evenodd" d="M423.93 56.6121C428.87 55.1601 431.048 53.7901 429.418 53.1448C428.983 52.9763 425.589 53.0872 421.878 53.3925C414.817 53.9713 413.901 54.6525 417.139 56.9248C418.526 57.8955 419.756 57.833 423.93 56.6121Z" fill="#FFCD00"/>
<path fill-rule="evenodd" clip-rule="evenodd" d="M326.924 82.0683C327.299 82.4871 328.137 82.739 328.788 82.6241C329.437 82.5098 330.141 81.9858 330.351 81.464C330.564 80.9227 329.762 80.683 328.486 80.9081C327.206 81.1337 326.538 81.6327 326.924 82.0683Z" fill="#FFCD00"/>
<path fill-rule="evenodd" clip-rule="evenodd" d="M267.217 80.1151C266.506 80.6934 264.824 81.0086 263.298 80.8486C261.194 80.6255 260.157 81.0455 258.426 82.8057C255.049 86.2311 257.078 86.5581 265.946 84.0191C270.308 82.7623 274.822 81.5693 275.975 81.3527C277.475 81.0776 277.762 80.7552 276.984 80.2102C275.292 79.0215 268.63 78.9572 267.217 80.1151Z" fill="#FFCD00"/>
<path fill-rule="evenodd" clip-rule="evenodd" d="M362.368 65.221C362.451 65.6939 363.483 65.909 364.662 65.7012C365.838 65.4939 366.734 64.9388 366.65 64.4659C366.567 63.9955 365.536 63.7804 364.36 63.9878C363.181 64.1956 362.285 64.7506 362.368 65.221Z" fill="#FFCD00"/>
<path fill-rule="evenodd" clip-rule="evenodd" d="M409.585 64.2259C413.008 63.9021 417.353 63.7595 419.245 63.9109C426.407 64.4921 436.16 64.6457 440.136 64.2403C442.41 64.0179 444.812 64.114 445.476 64.4633C446.139 64.8074 447.399 65.2141 448.276 65.3659C449.151 65.51 449.98 66.2672 450.116 67.0348C450.297 68.0659 450.732 68.1866 451.742 67.4915C454.368 65.672 458.444 65.6355 464.605 67.3712C468.006 68.3329 470.859 69.49 470.94 69.9475C471.021 70.4049 471.663 70.678 472.371 70.5532C473.077 70.4288 473.553 69.7478 473.429 69.0397C473.143 67.4192 474.071 67.2449 476.471 68.4765C477.534 69.0192 477.891 69.5345 477.289 69.6566C476.702 69.7735 476.334 70.494 476.467 71.2512C476.663 72.3625 476.113 72.6274 473.684 72.6027C469.201 72.5512 469.337 74.1872 474.003 76.4556C478.424 78.6019 481.865 78.3177 480.995 75.8757C480.233 73.7157 483.198 73.5472 486.582 75.554C490.046 77.608 491.695 77.4717 491.288 75.1638C491.122 74.2205 490.602 73.5209 490.131 73.6038C489.658 73.6872 489.205 73.3674 489.121 72.8893C488.97 72.0339 489.242 72.0818 494.736 73.7832C495.857 74.1291 497.957 74.5395 499.404 74.6869C501.59 74.9196 502.057 74.6827 502.173 73.2712C502.289 71.8144 502.633 71.6606 504.595 72.1647C506.418 72.6372 507.001 72.4786 507.449 71.379C508.258 69.4083 507.69 66.9902 506.357 66.727C505.727 66.5983 504.894 65.1116 504.501 63.4089C503.541 59.2532 501.468 57.788 499.298 59.7482C498.008 60.9058 497.451 61.0145 496.423 60.2899C495.39 59.5713 495.347 59.2192 496.19 58.4683C497.394 57.3953 496.281 55.7369 494.56 56.0404C493.921 56.1529 493.332 56.6939 493.249 57.2387C493.08 58.3931 484.126 57.4378 481.695 56.001C480.861 55.5192 479.362 55.4931 478.361 55.9495C476.973 56.5859 476.604 56.4617 476.806 55.4161C477.126 53.7715 472.079 53.3585 467.099 54.615C465.337 55.0669 463.363 55.1484 462.717 54.8093C462.069 54.4706 459.523 54.0294 457.061 53.8321C454.596 53.6352 452.154 53.2077 451.637 52.8859C451.118 52.5616 449.569 52.4963 448.192 52.7392C446.065 53.1142 445.881 53.3437 446.981 54.277C447.692 54.8791 448.988 55.2475 449.862 55.0934C450.738 54.939 452.248 55.6613 453.226 56.7014C455.27 58.8778 458.778 59.2932 467.991 58.4547C471.556 58.1326 474.732 58.1136 475.052 58.4169C476.199 59.5257 480.852 60.2267 483.698 59.725C485.297 59.4429 486.918 59.5649 487.303 59.9954C487.685 60.4262 488.628 60.5611 489.394 60.2928C490.312 59.9684 491.006 60.4723 491.43 61.7752C492.458 64.9328 491.174 65.6416 486.706 64.3775C484.26 63.6843 480.311 63.4746 476.949 63.8569C469.016 64.7653 461.885 64.4319 459.568 63.0497C458.314 62.3008 455.622 62.0853 452.175 62.4559C448.564 62.8423 446.313 62.6369 445.444 61.8469C444.673 61.1513 442.339 60.8035 439.782 61.0065C437.384 61.2029 431.073 61.4576 425.747 61.5679C420.426 61.6882 415.016 61.9892 413.724 62.2356C412.139 62.5417 411.3 62.2528 411.14 61.3456C410.952 60.2834 410.325 60.2156 408.209 61.0176C404.888 62.2827 402.465 63.1817 401.371 63.5557C399.083 64.3456 404.094 64.7572 409.585 64.2259Z" fill="#FFCD00"/>
<path fill-rule="evenodd" clip-rule="evenodd" d="M446.993 60.601C447.624 60.7323 448.588 60.5623 449.136 60.2233C449.683 59.879 449.165 59.7704 447.987 59.9782C446.811 60.1855 446.364 60.4641 446.993 60.601Z" fill="#FFCD00"/>
<path fill-rule="evenodd" clip-rule="evenodd" d="M350.575 58.0216C355.929 56.2969 355.96 53.997 350.617 54.9178C347.891 55.3878 347.258 55.2729 348.106 54.4573C348.919 53.6769 347.796 53.6672 344.125 54.4157C340.959 55.0645 338.525 56.056 337.742 57.0229C337.04 57.8794 336.52 58.8611 336.581 59.2048C336.763 60.236 346.162 59.4367 350.575 58.0216Z" fill="#FFCD00"/>
<path fill-rule="evenodd" clip-rule="evenodd" d="M361.621 56.796C365.33 57.7035 367.875 57.5506 369.988 56.28C372.216 54.941 370.137 54.1352 366.224 54.8251C364.131 55.1942 362.353 55.1134 362.269 54.6379C362.186 54.1701 361.152 53.9555 359.976 54.1628C356.875 54.7096 357.553 55.7918 361.621 56.796Z" fill="#FFCD00"/>
<path fill-rule="evenodd" clip-rule="evenodd" d="M332.064 58.6424C331.645 59.02 331.335 59.4957 331.371 59.7025C331.408 59.9118 331.82 60.0124 332.291 59.9294C332.764 59.846 333.077 59.3698 332.989 58.871C332.901 58.3748 332.485 58.267 332.064 58.6424Z" fill="#FFCD00"/>
<path fill-rule="evenodd" clip-rule="evenodd" d="M408.383 56.2759C410.101 54.9283 410.414 52.6961 408.718 53.8851C408.177 54.263 407.076 54.9394 406.276 55.3896C405.345 55.9109 405.166 56.4541 405.783 56.8836C406.4 57.3131 407.339 57.0968 408.383 56.2759Z" fill="#FFCD00"/>
<path fill-rule="evenodd" clip-rule="evenodd" d="M371.732 118.325C371.814 118.793 372.653 119.047 373.596 118.881C374.537 118.715 375.241 118.189 375.159 117.721C375.076 117.25 374.235 116.999 373.294 117.165C372.35 117.331 371.649 117.855 371.732 118.325Z" fill="#FFCD00"/>
<path fill-rule="evenodd" clip-rule="evenodd" d="M344.79 118.079C344.113 118.487 343.63 119.219 343.715 119.703C343.908 120.796 344.797 120.655 346.268 119.314C347.656 118.056 346.477 117.068 344.79 118.079Z" fill="#FFCD00"/>
<mask id="mask0_194_2" style="mask-type:luminance" maskUnits="userSpaceOnUse" x="0" y="0" width="516" height="201">
<path fill-rule="evenodd" clip-rule="evenodd" d="M0 87.5607L495.713 0.153212L515.595 112.909L19.8819 200.317L0 87.5607Z" fill="white"/>
</mask>
<g mask="url(#mask0_194_2)">
<path fill-rule="evenodd" clip-rule="evenodd" d="M257.293 133.204C255.476 133.524 254.519 134.052 254.924 134.506C255.299 134.925 256.74 135.07 258.125 134.826C259.51 134.582 260.577 133.994 260.494 133.524C260.411 133.054 258.97 132.908 257.293 133.204Z" fill="#FFCD00"/>
<path fill-rule="evenodd" clip-rule="evenodd" d="M447.617 102.013C447.041 102.371 446.296 102.47 445.962 102.239C445.627 101.999 446.099 101.711 447.006 101.586C448.015 101.456 448.252 101.622 447.617 102.013ZM438.888 102.953C438.418 103.036 437.727 102.758 437.354 102.339C436.979 101.92 437.056 101.507 437.526 101.424C437.999 101.34 438.693 101.618 439.068 102.036C439.44 102.456 439.361 102.869 438.888 102.953ZM403.002 103.978C400.864 104.355 399.494 103.235 400.736 102.129C401.206 101.715 402.321 101.884 403.214 102.51C404.72 103.566 404.702 103.678 403.002 103.978ZM388.943 86.9667C386.628 87.4363 385.913 87.1466 387.042 86.2041C387.358 85.9379 388.442 85.8932 389.453 86.1068C391.055 86.4426 390.989 86.5528 388.943 86.9667ZM381.708 88.5038C378.19 89.4519 372.691 89.4729 374.869 88.5291C376.753 87.712 385.518 86.3582 385.608 86.8648C385.665 87.1745 383.908 87.9106 381.708 88.5038ZM332.416 121.695C329.739 122.185 327.244 122.239 326.869 121.82C326.494 121.401 326.497 120.98 326.871 120.884C327.246 120.786 328.933 120.318 330.611 119.833C332.415 119.315 334.414 119.336 335.478 119.884C337.103 120.714 336.792 120.899 332.416 121.695ZM298.359 116.324C297.67 117.309 291.21 118.56 271.618 121.506C269.487 121.826 266.9 121.786 265.864 121.422C264.828 121.051 260.692 121.26 256.671 121.879C247.013 123.369 245.233 123.523 243.917 122.968C243.311 122.716 242.242 122.851 241.542 123.265C240.707 123.772 240.19 123.562 240.03 122.652C239.896 121.895 239.208 121.379 238.503 121.504C237.797 121.628 237.139 121.296 237.046 120.767C236.927 120.095 238.164 119.765 241.053 119.69C245.075 119.588 253.055 118.21 262.559 115.983C265.428 115.312 268.162 115.232 269.995 115.775C271.589 116.248 276.025 116.26 279.848 115.799C283.674 115.343 287.314 115.25 287.944 115.589C289.096 116.217 291.926 116.214 296.581 115.58C298.412 115.326 298.911 115.537 298.359 116.324ZM215.996 88.9171C214.407 90.5749 210.191 91.5982 209.26 90.5499C208.927 90.1768 205.882 90.3167 202.493 90.8636C199.103 91.4054 196.126 91.7064 195.877 91.5293C195.366 91.1717 199.619 89.0733 200.981 89.0118C201.462 88.9883 205.357 88.6238 209.64 88.2018C216.574 87.5228 217.261 87.5988 215.996 88.9171ZM154.139 100.053C150.718 100.632 147.86 100.761 147.784 100.329C147.709 99.9027 148.533 99.3949 149.616 99.204C150.699 99.013 151.896 98.4103 152.275 97.8717C153.288 96.4246 167.662 92.8723 167.864 94.0197C168.147 95.6247 160.562 98.958 154.139 100.053ZM144.623 97.4252C143.682 98.2814 143.722 98.7354 144.85 99.9993C146.546 101.893 145.634 102.358 135.533 104.72C131.681 105.618 128.506 106.202 128.473 106.013C128.368 105.421 133.406 102.297 137.451 100.443C139.596 99.4575 141.497 98.283 141.676 97.8356C141.857 97.38 142.849 96.8694 143.884 96.6948C145.403 96.4377 145.543 96.5809 144.623 97.4252ZM209.198 68.4117C210.316 68.236 210.308 68.416 209.154 69.3842C208.382 70.0373 207.559 70.4355 207.322 70.2695C206.61 69.7688 207.75 68.6432 209.198 68.4117ZM212.914 66.8474C213.718 66.7057 213.951 65.8518 213.584 64.3871C213.126 62.5599 213.475 61.928 215.464 60.9671C218.659 59.4365 220.432 59.8086 220.254 61.9878C220.152 63.2343 220.618 63.7037 221.925 63.6651C222.925 63.638 223.96 64.0231 224.226 64.5198C224.866 65.7127 222.02 66.982 216.481 67.972C214.007 68.4189 211.919 68.3953 211.836 67.9224C211.753 67.452 212.235 66.9673 212.914 66.8474ZM239.456 66.8068C241.339 66.4828 242.042 66.5427 241.014 66.9346C239.985 67.3265 238.441 67.5908 237.583 67.5208C236.726 67.4507 237.571 67.1313 239.456 66.8068ZM250.124 65.9652L256.062 65.8322L251.717 67.4003C248.51 68.5548 246.984 68.7386 245.885 68.1143C243.177 66.5718 244.116 66.0919 250.124 65.9652ZM260.901 64.6401C263.238 64.1881 266.088 62.9101 267.678 61.6039C270.732 59.1095 273.315 58.3449 274.441 59.6093C274.89 60.1137 276.299 60.0198 277.986 59.3866C280.822 58.3189 281.679 58.8739 280.279 60.8769C279.728 61.6642 279.819 62.0931 280.608 62.4071C281.268 62.6745 281.765 62.0964 281.858 60.9608C281.982 59.4548 282.678 58.959 285.337 58.4901C289.053 57.8348 289.848 58.8645 287.207 60.9184C286.245 61.6609 285.292 62.663 285.085 63.1365C284.88 63.6204 283.202 64.26 281.361 64.5633C279.52 64.8667 274.443 65.7246 270.084 66.4666C265.721 67.2065 262.092 67.4787 262.019 67.0652C261.946 66.6517 260.758 66.1097 259.382 65.8646C257.066 65.4549 257.183 65.3597 260.901 64.6401ZM290.825 58.1195C292.863 56.8941 298.063 56.1131 298.221 57.0099C298.295 57.4286 297.061 58.1551 295.48 58.6311L295.485 58.6302C293.908 59.1028 291.896 59.3723 291.02 59.2257C289.498 58.9798 289.488 58.9255 290.825 58.1195ZM302.506 62.4927C305.414 61.0313 306.478 60.9022 310.026 61.5877C316.047 62.7431 316.133 63.6578 310.324 64.6822C307.522 65.1762 303.858 65.2654 302.176 64.8877L299.117 64.1933L302.506 62.4927ZM514.599 111.87C513.882 111.751 512.295 110.896 511.07 109.963C509.846 109.038 508.307 108.348 507.65 108.432C506.992 108.521 504.555 107.973 502.237 107.217C499.916 106.459 496.873 105.586 495.475 105.276C494.072 104.966 492.952 104.231 492.978 103.643C493.006 103.057 491.337 101.544 489.269 100.286C484.899 97.6299 485.202 95.6312 489.729 97.258C491.914 98.0451 493.016 98.024 493.947 97.1804C495.841 95.4714 494.68 94.6314 490.879 94.9553C489.005 95.1179 486.837 94.882 486.061 94.438C484.018 93.2685 482.54 93.316 474.453 94.7686C470.462 95.4882 466.749 95.8445 466.203 95.5571C465.654 95.2701 462.692 95.43 459.62 95.9131C456.427 96.4095 452.512 96.4044 450.485 95.8957C447.248 95.0835 447.049 94.8787 448.254 93.627C450.431 91.3592 448.5 91.1827 443.798 93.2296C437.29 96.0532 430.584 95.4556 429.81 91.9707C429.735 91.6241 433.604 90.7448 438.41 90.0145C444.38 89.1112 447.2 88.3581 447.309 87.6461C447.397 87.0736 446.977 86.7479 446.377 86.9097C442.819 87.9048 432.957 87.7545 431.85 86.6918C430.772 85.6587 430.427 85.693 429.377 86.9308C427.93 88.6382 414.522 91.6206 411.571 90.8937C409.976 90.5036 410.135 90.3821 412.476 90.2225C414.035 90.1156 415.255 89.7033 415.187 89.3182C415.118 88.9306 416.637 87.5064 418.556 86.1526C422.792 83.1674 424.24 81.0548 422.306 80.6816C421.58 80.5405 420 81.0109 418.8 81.7314C415.814 83.5077 410.133 84.4161 409.485 83.2193C409.138 82.5772 406.84 82.6013 402.807 83.2937C399.424 83.8716 396.61 84.0986 396.557 83.7989C396.411 83.0172 391.632 83.0711 381.556 83.9603C376.736 84.384 372.178 84.3801 371.432 83.9548C370.684 83.5244 367.893 83.3344 365.235 83.5233C362.577 83.7148 360.536 83.5337 360.703 83.118C361.269 81.6885 358.764 81.4799 351.911 82.3738C348.132 82.8697 344.696 83.137 344.277 82.9658C343.853 82.8006 338.139 83.366 331.568 84.2288C316.673 86.1837 312.649 86.2616 312.358 84.6127C312.194 83.6824 313.2 83.1561 316.182 82.6142C321.435 81.6533 323.528 79.2085 318.538 79.8537C306.357 81.4341 305.123 81.7235 305.782 82.8171C306.273 83.6365 305.621 84.0314 303.238 84.3743C300.049 84.8327 293.859 84.669 295.554 84.1703C296.043 84.0281 297.089 83.2067 297.882 82.3502C299.184 80.9401 298.543 80.9332 291.195 82.2688C286.724 83.0865 282.458 83.6948 281.718 83.6228C275.81 83.063 273.588 83.3695 272.837 84.8529C272.159 86.1877 270.984 86.4774 264.206 86.9665C259.889 87.2852 253.976 87.5552 251.064 87.5756C248.154 87.5904 241.712 88.2467 236.749 89.0284C227.901 90.4261 224.136 90.1547 220.91 87.8961C218.989 86.5534 220.227 85.9088 226.416 85.028C232.167 84.2138 236.789 81.936 237.221 79.7013C237.569 77.9132 233.685 78.6753 232.286 80.6726C231.431 81.8999 230.01 82.2999 225.29 82.6578C222.034 82.9041 217.448 83.4916 215.107 83.9683C211.383 84.7182 211.005 84.6462 212.138 83.4232C212.851 82.6447 213.399 81.8099 213.355 81.5618C213.312 81.3162 210.045 81.8922 206.093 82.8423C199.296 84.4778 198.804 84.482 196.824 82.8326C194.942 81.2725 194.645 81.2554 193.897 82.6504C193.249 83.8706 191.669 84.4131 186.613 85.15C177.228 86.5091 173.334 86.3083 173.482 84.4621C173.581 83.2535 173.005 83.0833 170.527 83.5868C168.837 83.9275 167.107 84.5016 166.689 84.8632C166.268 85.2253 164.755 86.001 163.325 86.5809C160.45 87.746 158.425 86.6588 161.146 85.4088C163.441 84.3539 162.226 83.2065 158.729 83.125C156.996 83.0869 156.147 82.7009 156.554 82.1388C156.926 81.6176 158.838 81.2325 160.928 81.253C163.274 81.2737 164.912 80.8942 165.383 80.2223C165.907 79.477 167.009 79.3066 169.086 79.6599C172.464 80.2288 187.2 77.8543 195.92 75.3335C201.655 73.6773 205.437 73.6793 207.183 75.346C207.693 75.8344 208.186 75.6063 208.562 74.7191C209.072 73.4994 210.648 73.2482 221.104 72.6755C233.238 72.0175 235.082 72.1827 233.297 73.7738C232.575 74.4209 232.877 74.7114 234.394 74.8383C235.543 74.9315 236.547 74.6105 236.625 74.1197C236.701 73.6267 237.145 73.3805 237.616 73.5694C239.486 74.3107 256.798 71.5514 257.826 70.3389C258.635 69.3834 258.903 69.4188 259.096 70.5172C259.231 71.2822 259.675 71.8488 260.086 71.7764C260.494 71.7044 264.328 71.6386 268.601 71.6339C272.876 71.6236 279.334 71.0258 282.954 70.3076C286.575 69.5945 289.905 69.1486 290.353 69.3174C290.804 69.4884 298.048 69.3142 306.457 68.9294C318.016 68.3968 322.285 67.8999 323.981 66.8972C325.636 65.9127 326.271 65.8273 326.4 66.5587C326.825 68.9221 346.37 68.0552 348.092 65.5958C348.816 64.5622 346.783 63.5536 344.705 63.9199C343.472 64.1373 341.215 64.165 339.693 63.9829C330.692 62.8973 328.31 62.8696 322.855 63.8156C317.417 64.7585 316.768 64.6916 316.257 63.135C315.369 60.427 319.036 58.3014 322.717 59.3925C325.298 60.1578 325.755 60.072 327.435 58.4939C328.596 57.4018 330.235 56.7665 331.813 56.8026C333.197 56.8357 334.486 56.4698 334.679 55.9909C335.18 54.738 332.36 54.0573 327.311 54.2095C324.894 54.284 322.561 54.2023 322.126 54.0338C320.496 53.3886 313.31 54.6585 311.477 55.9195C309.906 56.9986 309.375 56.9937 308.491 55.9104C307.731 54.9839 306.821 54.8566 305.411 55.4863C304.188 56.035 303.343 56.0136 303.24 55.4321C303.148 54.9126 301.801 54.7078 300.245 54.9821C298.692 55.256 296.98 55.1715 296.442 54.7974C295.904 54.4206 290.812 54.7216 285.123 55.4636C279.437 56.2103 272.402 56.8458 269.495 56.8761C262.045 56.956 257.486 57.8957 255.809 59.6998C253.631 62.0397 249.669 62.5092 248.76 60.527C248.013 58.9079 246.013 58.6104 245.444 60.0378C245.281 60.4475 244.049 60.9233 242.707 61.0985C241.366 61.2738 238.814 61.6118 237.036 61.8481C234.871 62.142 233.729 61.8796 233.585 61.0629C233.414 60.0912 232.356 60.1071 228.519 61.1381L223.673 62.4403L225.429 60.4198C227.249 58.3188 226.593 56.1829 224.516 57.4337C223.866 57.8255 222.664 57.763 221.849 57.2965C221.035 56.8377 220.186 56.7051 219.971 57.0147C219.754 57.3248 218.298 57.2858 216.735 56.935C214.823 56.5021 213.093 56.6793 211.434 57.4887C209.771 58.3042 208.719 58.4099 208.197 57.825C207.669 57.2333 206.431 57.3717 204.258 58.2744C202.518 58.997 196.567 60.4141 191.038 61.4182C181.13 63.2266 180.978 63.2241 180.639 61.3013C180.238 59.0271 178.072 59.0491 177.274 61.3351C176.584 63.3167 174.376 62.5095 174.553 60.3385C174.706 58.4543 173.51 58.2787 165.218 58.9735C158.272 59.5533 138.795 62.8917 133.071 64.4792C130.757 65.127 125.441 66.5333 121.261 67.6115C116.716 68.7806 113.183 70.1552 112.48 71.0225C111.699 71.9863 108.359 73.1321 102.522 74.4359C97.6936 75.5111 93.4295 76.8385 93.04 77.3949C92.6573 77.9447 90.8764 78.6504 89.088 78.9657C86.7646 79.3754 85.8973 79.9121 86.0591 80.8295C86.2869 82.1217 85.4694 82.5936 82.6545 82.7995C81.815 82.8596 81.2134 83.3921 81.3177 83.9839C81.4262 84.599 80.8978 84.4736 80.0828 83.69C78.7231 82.3869 78.3496 82.4447 71.7012 84.9841C67.8711 86.4455 64.151 87.669 63.4304 87.7082C61.5848 87.8044 56.3494 89.94 50.7308 92.8947C48.1011 94.2724 44.9328 95.5878 43.6923 95.8065C42.4518 96.0253 41.0546 96.746 40.591 97.4113C40.1223 98.0775 39.6873 98.3008 39.619 97.9131C39.5511 97.528 38.9376 97.8574 38.2525 98.6417C37.4087 99.6139 37.1566 99.6957 37.4644 98.8873C37.7833 98.0663 37.2551 97.821 35.7277 98.0903C34.4174 98.3213 33.6213 98.96 33.7476 99.6759C34.0871 101.601 29.8067 103.576 27.6247 102.506C24.806 101.119 23.5185 101.751 23.9687 104.305L24.3747 106.607L22.2973 105.042C19.5811 102.997 17.992 103.355 16.7276 106.309C16.1584 107.63 14.8187 109.1 13.7494 109.579C11.5264 110.573 11.5138 112.225 13.7149 113.766C14.5457 114.352 15.3262 115.408 15.4506 116.114C15.5755 116.822 16.5238 117.516 17.5528 117.654C18.5875 117.794 19.2897 118.104 19.1182 118.356C18.7112 118.934 13.9685 117.713 13.8423 116.997C13.747 116.457 8.36324 117.721 6.42013 118.746C5.25877 119.353 5.44847 121.638 6.70044 122.134C7.16514 122.321 7.99713 123.488 8.55502 124.733C9.10683 125.973 10.6632 128.014 12.0128 129.26C13.3624 130.507 14.7605 132.405 15.1179 133.48C15.7492 135.383 16.9542 136.112 20.1528 136.51C21.3636 136.666 21.8966 137.649 22.4434 140.75C23.3457 145.867 27.4185 155.153 29.4913 156.812C30.3603 157.509 32.1952 157.881 33.565 157.64C36.5008 157.122 39.6106 157.983 39.8562 159.376C39.9515 159.917 39.3795 161.358 38.5811 162.572L37.1311 164.792L39.7454 167.936C41.1889 169.67 42.9448 170.999 43.6566 170.895C45.8866 170.56 48.609 172.444 48.2906 174.099C47.8927 176.149 49.8938 177.72 52.3464 177.288C53.4396 177.095 54.6208 177.265 54.9787 177.663C55.6799 178.45 60.3995 177.213 64.2854 175.222C65.6251 174.538 68.8946 173.389 71.5558 172.659C76.459 171.314 79.2221 169.394 82.2883 165.202C83.2247 163.923 84.4169 162.796 84.939 162.704C85.4658 162.609 86.9411 161.712 88.2221 160.71C89.6501 159.59 93.342 158.267 97.7742 157.289C101.749 156.409 107.819 154.787 111.268 153.689C114.717 152.59 123.939 149.944 131.759 147.808C145.054 144.179 146.099 144.003 147.845 145.097C149.545 146.167 150.804 145.99 162.049 143.104C168.832 141.359 174.766 139.513 175.23 139C176.719 137.352 180.044 136.272 181.347 137.015C182.079 137.43 183.931 137.266 185.739 136.624C187.46 136.015 191.455 134.687 194.614 133.682C197.769 132.673 200.517 131.615 200.717 131.329C200.917 131.044 201.995 131.629 203.113 132.631C205.384 134.661 209.131 134.464 211.81 132.174C213.106 131.061 213.548 130.983 214.012 131.786C214.327 132.335 215.133 132.691 215.8 132.574C216.467 132.456 216.831 131.894 216.609 131.328C216.309 130.549 218.153 129.99 223.94 129.078C231.47 127.895 233.884 127.712 244.851 127.465C259.565 127.14 262.985 126.799 264.936 125.458C266.496 124.378 267.099 124.322 267.853 125.167C268.648 126.061 269.115 125.99 270.701 124.74C271.776 123.9 273.457 123.367 274.579 123.52C276.399 123.759 276.453 123.888 275.287 125.104C274.189 126.249 274.736 126.451 279.236 126.55C282.104 126.617 290.172 126.444 297.167 126.173C304.164 125.898 312.455 125.617 315.601 125.552C318.746 125.48 327.013 125.043 333.975 124.572C340.935 124.099 347.231 123.81 347.961 123.929C348.695 124.042 352.265 124.007 355.894 123.839C359.524 123.678 365.453 123.419 369.069 123.269C372.683 123.122 378.793 122.815 382.635 122.585C389.196 122.193 395.036 122.069 405.513 122.111C407.944 122.125 412.856 121.815 416.429 121.42C425.436 120.439 421.266 119.853 406.923 120.088C400.628 120.188 389.723 120.32 382.688 120.38C371.552 120.47 344.38 121.379 342.419 121.724C342.036 121.792 341.121 120.967 340.382 119.893C339.235 118.225 339.263 117.761 340.577 116.736C341.421 116.067 343.256 115.243 344.649 114.893C346.311 114.48 346.975 113.91 346.575 113.24C345.787 111.929 355.034 110.829 358.187 111.859C359.623 112.33 364.912 111.765 374.154 110.154C381.752 108.825 388.731 107.984 389.665 108.275C390.598 108.566 393.194 108.644 395.434 108.441C400.732 107.975 409.213 107.972 418.118 108.438C422.043 108.647 427.083 108.664 429.32 108.48C431.556 108.296 433.793 108.307 434.296 108.514C434.8 108.71 439.114 108.786 443.885 108.672C453.923 108.443 459.104 108.555 464.152 109.101C468.16 109.54 474.102 109.737 478.878 109.59C480.603 109.537 482.931 110.088 484.047 110.808C485.327 111.646 487.308 111.909 489.407 111.528C494.457 110.622 498.577 110.642 502.603 111.576C508.415 112.933 514.959 113.549 515.449 112.791C515.697 112.404 515.316 111.994 514.599 111.87Z" fill="#FFCD00"/>
</g>
<path fill-rule="evenodd" clip-rule="evenodd" d="M432.265 121.063C431.482 120.748 429.252 120.513 427.315 120.542C424.996 120.57 424.282 120.784 425.217 121.155C426 121.47 428.227 121.709 430.167 121.678C432.485 121.648 433.201 121.434 432.265 121.063Z" fill="#FFCD00"/>
<path fill-rule="evenodd" clip-rule="evenodd" d="M489.565 89.2368C486.523 90.2581 486.117 90.6308 487.225 91.3815C487.966 91.8798 490.312 92.1136 492.446 91.8973C495.471 91.5824 496.328 91.186 496.358 90.0562C496.41 88.0698 493.936 87.7759 489.565 89.2368Z" fill="#FFCD00"/>
<path fill-rule="evenodd" clip-rule="evenodd" d="M462.151 123.279C460.28 123.409 459.549 123.554 460.53 123.605C461.509 123.656 462.742 123.985 463.265 124.335C463.79 124.685 465.198 124.796 466.396 124.564C469.661 123.948 466.455 122.976 462.151 123.279Z" fill="#FFCD00"/>
<path fill-rule="evenodd" clip-rule="evenodd" d="M504.303 102.547C504.64 102.78 505.379 102.679 505.956 102.324C506.592 101.93 506.352 101.759 505.348 101.899C504.439 102.019 503.968 102.31 504.303 102.547Z" fill="#FFCD00"/>
<path fill-rule="evenodd" clip-rule="evenodd" d="M479.698 123.758C476.341 123.929 476.112 124.047 477.686 124.859C478.658 125.354 480.789 125.546 482.417 125.272C486.426 124.602 484.479 123.52 479.698 123.758Z" fill="#FFCD00"/>
<path fill-rule="evenodd" clip-rule="evenodd" d="M488.861 117.101C488.447 117.174 488.244 118.001 488.41 118.945C488.701 120.591 490.494 120.97 491.461 119.592C491.996 118.832 489.982 116.903 488.861 117.101Z" fill="#FFCD00"/>
<path fill-rule="evenodd" clip-rule="evenodd" d="M471.458 115.757C470.307 115.96 469.433 116.503 469.514 116.963C469.682 117.911 474.01 118.427 474.61 117.573C475.38 116.47 473.51 115.395 471.458 115.757Z" fill="#FFCD00"/>
<path fill-rule="evenodd" clip-rule="evenodd" d="M447.89 121.769C445.674 121.747 443.914 122.023 443.977 122.385C444.14 123.305 445.95 123.553 450.875 123.33C456.3 123.087 453.9 121.834 447.89 121.769Z" fill="#FFCD00"/>
<path fill-rule="evenodd" clip-rule="evenodd" d="M442.126 121.891C441.348 121.618 439.797 121.27 438.681 121.139C437.564 120.998 436.714 121.257 436.793 121.701C436.94 122.539 439.982 123.06 442.256 122.627C443.394 122.416 443.379 122.331 442.126 121.891Z" fill="#FFCD00"/>
<path fill-rule="evenodd" clip-rule="evenodd" d="M509.465 97.9989C508.507 98.8553 509.746 100.79 511.468 101.123C513.011 101.429 514.313 100.563 514.105 99.3817C513.913 98.2911 510.328 97.2284 509.465 97.9989Z" fill="#FFCD00"/>
</svg>
